<svg width="42" height="42" viewBox="0 0 42 42" fill="none" xmlns="http://www.w3.org/2000/svg">
<g clip-path="url(#clip0_747_5076)">
<path d="M14.6976 35.4256C14.0907 35.0323 13.5528 34.5463 13.1047 33.9863C12.6117 33.4082 12.1549 32.8018 11.7368 32.1702C10.7558 30.7701 9.98637 29.2398 9.45229 27.6264C8.8107 25.7523 8.5 23.956 8.5 22.199C8.5 20.2368 8.93574 18.5238 9.788 17.0845C10.4198 15.9595 11.3486 15.0194 12.4785 14.3614C13.5734 13.6989 14.8315 13.3363 16.1202 13.3119C16.5714 13.3119 17.0571 13.3756 17.5727 13.4974C17.9431 13.5996 18.3942 13.7607 18.9454 13.9613C19.6466 14.2246 20.0323 14.3858 20.1631 14.4251C20.5739 14.5713 20.9192 14.635 21.1905 14.635C21.3963 14.635 21.6868 14.5713 22.0167 14.4738C22.2024 14.4101 22.5525 14.2977 23.0537 14.0887C23.55 13.9125 23.9406 13.7617 24.2512 13.6492C24.7274 13.5124 25.1881 13.3859 25.5989 13.3222C26.0858 13.2474 26.58 13.2276 27.0716 13.2632C27.9234 13.3174 28.7625 13.4933 29.5619 13.7851C30.8692 14.2977 31.9263 15.0979 32.7132 16.2355C32.3806 16.4352 32.0685 16.6655 31.7811 16.9233C31.1555 17.4636 30.6226 18.0979 30.2026 18.8021C29.6536 19.7645 29.369 20.8487 29.3763 21.9497C29.3965 23.3019 29.7524 24.4929 30.4536 25.5227C30.9692 26.286 31.6392 26.9387 32.4227 27.4409C32.8238 27.7042 33.1691 27.8851 33.5 28.0069C33.3451 28.4754 33.1797 28.9289 32.9844 29.3787C32.5416 30.3874 32.0048 31.3544 31.3809 32.2677C30.8249 33.0539 30.3892 33.6395 30.0583 34.0294C29.5427 34.6244 29.0464 35.0789 28.5452 35.3956C27.994 35.7517 27.3428 35.9419 26.681 35.9419C26.2328 35.9587 25.7848 35.9058 25.3536 35.7854C24.9833 35.6636 24.6168 35.5315 24.2561 35.3806C23.881 35.2128 23.4944 35.071 23.0989 34.9561C22.1213 34.7115 21.0963 34.7099 20.1179 34.9514C19.7168 35.0639 19.3311 35.1951 18.9502 35.3562C18.4144 35.5755 18.0585 35.7226 17.8526 35.7854C17.4419 35.9025 17.0158 35.9756 16.5848 36C15.9182 36 15.2968 35.8145 14.6812 35.4387L14.6976 35.4256ZM23.4894 12.3598C22.6179 12.7843 21.7859 12.9652 20.9596 12.9061C20.8297 12.0956 20.9596 11.2663 21.3049 10.3583C21.5989 9.58901 22.0333 8.87789 22.5871 8.25925C23.172 7.60802 23.8817 7.07422 24.6764 6.6878C25.5229 6.26331 26.3299 6.03373 27.1014 6C27.2014 6.84898 27.1014 7.6839 26.7811 8.58629C26.4846 9.38399 26.051 10.1267 25.4988 10.7828C24.9352 11.4349 24.2435 11.9708 23.4644 12.3589L23.4894 12.3598Z" fill="#00120A"/>
</g>
<defs>
<clipPath id="clip0_747_5076">
<rect x="0.5" y="0.5" width="41" height="41" rx="20.5" fill="white"/>
</clipPath>
</defs>
</svg>
