<svg width="42" height="42" viewBox="0 0 42 42" fill="none" xmlns="http://www.w3.org/2000/svg">
<g clip-path="url(#clip0_1167_6359)">
<path d="M24.6458 13.378C25.7917 13.378 26.7292 12.2805 26.7292 10.939C26.7292 9.59756 25.7917 8.5 24.6458 8.5C23.5 8.5 22.5625 9.59756 22.5625 10.939C22.5625 12.2805 23.5 13.378 24.6458 13.378ZM13.7083 21.3049C10.7917 21.3049 8.5 23.9878 8.5 27.4024C8.5 30.8171 10.7917 33.5 13.7083 33.5C16.625 33.5 18.9167 30.8171 18.9167 27.4024C18.9167 23.9878 16.625 21.3049 13.7083 21.3049ZM13.7083 31.6707C11.7292 31.6707 10.0625 29.7195 10.0625 27.4024C10.0625 25.0854 11.7292 23.1341 13.7083 23.1341C15.6875 23.1341 17.3542 25.0854 17.3542 27.4024C17.3542 29.7195 15.6875 31.6707 13.7083 31.6707ZM19.75 19.4756L22.25 16.5488L23.0833 17.5244C24.4375 19.1098 26.2083 20.0854 28.3958 20.0854V17.6463C26.8333 17.6463 25.5833 16.9146 24.6458 15.8171L22.6667 13.5C22.1458 13.0122 21.625 12.7683 21 12.7683C20.375 12.7683 19.8542 13.0122 19.5417 13.5L16.625 16.9146C16.2083 17.4024 16 18.0122 16 18.622C16 19.3537 16.2083 19.9634 16.625 20.3293L19.9583 23.7439V29.8415H22.0417V22.2805L19.75 19.4756ZM28.2917 21.3049C25.375 21.3049 23.0833 23.9878 23.0833 27.4024C23.0833 30.8171 25.375 33.5 28.2917 33.5C31.2083 33.5 33.5 30.8171 33.5 27.4024C33.5 23.9878 31.2083 21.3049 28.2917 21.3049ZM28.2917 31.6707C26.3125 31.6707 24.6458 29.7195 24.6458 27.4024C24.6458 25.0854 26.3125 23.1341 28.2917 23.1341C30.2708 23.1341 31.9375 25.0854 31.9375 27.4024C31.9375 29.7195 30.2708 31.6707 28.2917 31.6707Z" fill="black"/>
</g>
<defs>
<clipPath id="clip0_1167_6359">
<rect x="0.5" y="0.5" width="41" height="41" rx="20.5" fill="white"/>
</clipPath>
</defs>
</svg>
