<svg width="42" height="42" viewBox="0 0 42 42" fill="none" xmlns="http://www.w3.org/2000/svg">
<g clip-path="url(#clip0_766_3972)">
<path d="M8.5 21C8.5 20.2578 8.93454 19.5884 9.5537 18.978C9.92419 18.6138 10.3562 18.2646 10.7368 17.9105C11.0407 17.6279 11.3145 17.3503 11.4426 17.0414C11.577 16.7186 11.5858 16.318 11.5744 15.8948C11.5606 15.3723 11.5041 14.821 11.5004 14.306C11.4928 13.4382 11.6548 12.6683 12.161 12.161C12.6683 11.6548 13.4382 11.4928 14.306 11.5004C14.821 11.5054 15.3723 11.5606 15.8935 11.5744C16.3167 11.5858 16.7186 11.577 17.0414 11.4426C17.3503 11.3145 17.6279 11.0407 17.9105 10.7368C18.2646 10.3562 18.6138 9.92419 18.978 9.55495C19.5884 8.93454 20.2578 8.5 21 8.5C21.7422 8.5 22.4116 8.93454 23.022 9.55495C23.3862 9.92419 23.7354 10.3562 24.0895 10.7368C24.3721 11.0407 24.6509 11.3145 24.9586 11.4426C25.2814 11.577 25.6833 11.5858 26.1052 11.5744C26.6277 11.5606 27.179 11.5054 27.694 11.5004C28.5618 11.4928 29.3329 11.6548 29.839 12.161C30.3464 12.6683 30.5072 13.4382 30.4996 14.306C30.4959 14.821 30.4394 15.3723 30.4255 15.8948C30.4142 16.318 30.423 16.7186 30.5574 17.0426C30.6855 17.3503 30.9593 17.6279 31.2632 17.9105C31.6425 18.2646 32.0745 18.6138 32.445 18.978C33.0642 19.5884 33.5 20.2578 33.5 21C33.5 21.7422 33.0642 22.4116 32.445 23.022C32.0745 23.3862 31.6425 23.7354 31.2632 24.0895C30.9593 24.3721 30.6855 24.6497 30.5574 24.9573C30.423 25.2814 30.4142 25.682 30.4255 26.1052C30.4394 26.6277 30.4959 27.179 30.4996 27.694C30.5072 28.5618 30.3464 29.3317 29.839 29.839C29.3329 30.3452 28.5618 30.5072 27.694 30.4996C27.179 30.4946 26.6277 30.4394 26.1052 30.4255C25.6833 30.4142 25.2814 30.423 24.9586 30.5574C24.6509 30.6855 24.3721 30.9593 24.0895 31.2632C23.7354 31.6438 23.3862 32.0758 23.022 32.445C22.4116 33.0655 21.7422 33.5 21 33.5C20.2578 33.5 19.5884 33.0655 18.978 32.445C18.6138 32.0758 18.2646 31.6438 17.9105 31.2632C17.6279 30.9593 17.3503 30.6855 17.0414 30.5574C16.7186 30.423 16.3167 30.4142 15.8935 30.4255C15.3723 30.4394 14.821 30.4946 14.306 30.4996C13.4382 30.5072 12.6683 30.3452 12.161 29.839C11.6548 29.3317 11.4928 28.5618 11.5004 27.694C11.5041 27.179 11.5606 26.6277 11.5744 26.1052C11.5858 25.682 11.577 25.2814 11.4426 24.9586C11.3145 24.6497 11.0407 24.3721 10.7368 24.0895C10.3562 23.7354 9.92419 23.3862 9.5537 23.022C8.93454 22.4116 8.5 21.7422 8.5 21ZM9.7559 21C9.7559 21.2361 9.86642 21.4458 10.0146 21.6506C10.2206 21.9344 10.5019 22.1994 10.7958 22.4619C11.528 23.1162 12.3092 23.768 12.603 24.4763C12.907 25.211 12.8253 26.2333 12.7738 27.2117C12.7525 27.6073 12.7399 27.9929 12.7927 28.3357C12.8291 28.5756 12.8931 28.7941 13.0489 28.9499C13.2059 29.1068 13.4244 29.1709 13.6643 29.2073C14.0071 29.2601 14.3927 29.2475 14.7883 29.2262C15.7667 29.1747 16.789 29.093 17.5224 29.397C18.232 29.6908 18.8838 30.4708 19.5381 31.2042C19.8006 31.4981 20.0656 31.7794 20.3494 31.9854C20.5542 32.1336 20.7639 32.2441 21 32.2441C21.2349 32.2441 21.4458 32.1336 21.6506 31.9854C21.9344 31.7794 22.1994 31.4981 22.4619 31.2042C23.1162 30.4708 23.768 29.6908 24.4776 29.397C25.211 29.093 26.2333 29.1747 27.2117 29.2262C27.6073 29.2475 27.9929 29.2601 28.3357 29.2073C28.5769 29.1709 28.7941 29.1068 28.9511 28.9499C29.1081 28.7941 29.1709 28.5756 29.2073 28.3357C29.2601 27.9929 29.2475 27.6073 29.2274 27.2117C29.1747 26.2333 29.093 25.211 29.397 24.4776C29.6908 23.768 30.4708 23.1162 31.2042 22.4619C31.4981 22.1994 31.7794 21.9344 31.9854 21.6506C32.1336 21.4458 32.2441 21.2361 32.2441 21C32.2441 20.7639 32.1336 20.5542 31.9854 20.3494C31.7794 20.0656 31.4981 19.8006 31.2042 19.5381C30.4708 18.8838 29.6908 18.232 29.397 17.5224C29.093 16.789 29.1747 15.7667 29.2274 14.7883C29.2475 14.3927 29.2601 14.0071 29.2073 13.6643C29.1709 13.4244 29.1081 13.2059 28.9511 13.0501C28.7941 12.8931 28.5769 12.8291 28.3357 12.7927C27.9929 12.7399 27.6073 12.7525 27.2117 12.7738C26.2333 12.8253 25.211 12.907 24.4776 12.603C23.768 12.3092 23.1162 11.5292 22.4619 10.7958C22.1994 10.5019 21.9344 10.2206 21.6506 10.0146C21.4458 9.86642 21.2349 9.7559 21 9.7559C20.7639 9.7559 20.5542 9.86642 20.3494 10.0146C20.0656 10.2206 19.8006 10.5019 19.5381 10.7958C18.8838 11.5292 18.232 12.3092 17.5224 12.603C16.789 12.907 15.7667 12.8253 14.7883 12.7738C14.3927 12.7525 14.0071 12.7399 13.6643 12.7927C13.4244 12.8291 13.2059 12.8931 13.0489 13.0501C12.8931 13.2059 12.8291 13.4244 12.7927 13.6643C12.7399 14.0071 12.7525 14.3927 12.7738 14.7883C12.8253 15.7667 12.907 16.789 12.603 17.5237C12.3092 18.232 11.528 18.8838 10.7958 19.5381C10.5019 19.8006 10.2206 20.0656 10.0146 20.3494C9.86642 20.5542 9.7559 20.7639 9.7559 21ZM22.9818 23.2129C23.4791 22.7156 24.2867 22.7156 24.784 23.2129C25.2814 23.7102 25.2814 24.519 24.784 25.0164C24.2867 25.5137 23.4791 25.5137 22.9818 25.0164C22.4845 24.519 22.4845 23.7102 22.9818 23.2129ZM17.3667 25.5212C17.1218 25.7661 16.7236 25.7661 16.4787 25.5212C16.2338 25.2763 16.2338 24.8782 16.4787 24.6333L24.6333 16.4787C24.8782 16.2338 25.2763 16.2338 25.5212 16.4787C25.7661 16.7236 25.7661 17.1218 25.5212 17.3667L17.3667 25.5212ZM19.0182 18.7858C18.5208 19.2832 17.7133 19.2832 17.216 18.7858C16.7186 18.2885 16.7186 17.4797 17.216 16.9824C17.7133 16.485 18.5208 16.485 19.0182 16.9824C19.5168 17.4797 19.5168 18.2885 19.0182 18.7858Z" fill="#00120A" stroke="#00120A"/>
</g>
<defs>
<clipPath id="clip0_766_3972">
<rect x="0.5" y="0.5" width="41" height="41" rx="20.5" fill="white"/>
</clipPath>
</defs>
</svg>
