<svg width="42" height="42" viewBox="0 0 42 42" fill="none" xmlns="http://www.w3.org/2000/svg">
<g clip-path="url(#clip0_747_5566)">
<path d="M3.56259 25.005C5.32703 16.8175 12.703 11 21 11C29.2944 11 36.6704 16.8175 38.4374 25.005C38.5074 25.3299 38.7081 25.6146 38.9953 25.7965C39.2825 25.9784 39.6328 26.0426 39.969 25.975C40.3052 25.9074 40.5999 25.7134 40.7881 25.4359C40.9764 25.1583 41.0428 24.8199 40.9728 24.495C38.9626 15.1825 30.5544 8.5 21 8.5C11.4456 8.5 3.0374 15.1825 1.02718 24.495C0.957192 24.8199 1.02363 25.1583 1.21188 25.4359C1.40014 25.7134 1.69478 25.9074 2.031 25.975C2.36721 26.0426 2.71746 25.9784 3.00469 25.7965C3.29192 25.6146 3.4926 25.3299 3.56259 25.005V25.005ZM20.9741 16C23.3757 16 25.6789 16.9219 27.377 18.5628C29.0752 20.2038 30.0292 22.4294 30.0292 24.75C30.0292 27.0706 29.0752 29.2962 27.377 30.9372C25.6789 32.5781 23.3757 33.5 20.9741 33.5C18.5726 33.5 16.2694 32.5781 14.5713 30.9372C12.8731 29.2962 11.9191 27.0706 11.9191 24.75C11.9191 22.4294 12.8731 20.2038 14.5713 18.5628C16.2694 16.9219 18.5726 16 20.9741 16V16Z" fill="#00120A"/>
</g>
<defs>
<clipPath id="clip0_747_5566">
<rect x="0.5" y="0.5" width="41" height="41" rx="20.5" fill="white"/>
</clipPath>
</defs>
</svg>
