<svg width="42" height="42" viewBox="0 0 42 42" fill="none" xmlns="http://www.w3.org/2000/svg">
<g clip-path="url(#clip0_747_5071)">
<path d="M15.177 24.7443L14.3068 27.9929L11.1262 28.0602C10.1756 26.2971 9.63647 24.28 9.63647 22.1364C9.63647 20.0636 10.1406 18.109 11.0341 16.3878H11.0348L13.8665 16.907L15.1069 19.7216C14.8473 20.4785 14.7058 21.291 14.7058 22.1364C14.7059 23.054 14.8721 23.9332 15.177 24.7443Z" fill="#FBBB00"/>
<path d="M34.4182 19.8011C34.5617 20.5573 34.6366 21.3382 34.6366 22.1363C34.6366 23.0312 34.5425 23.9042 34.3632 24.7462C33.7547 27.6116 32.1647 30.1136 29.9622 31.8842L29.9615 31.8836L26.3949 31.7016L25.8901 28.5505C27.3516 27.6933 28.4938 26.352 29.0955 24.7462H22.4114V19.8011H29.193H34.4182Z" fill="#518EF8"/>
<path d="M29.9614 31.8837L29.962 31.8843C27.8199 33.6062 25.0987 34.6364 22.1365 34.6364C17.3762 34.6364 13.2375 31.9757 11.1262 28.0602L15.177 24.7443C16.2327 27.5615 18.9504 29.5671 22.1365 29.5671C23.506 29.5671 24.789 29.1968 25.8899 28.5506L29.9614 31.8837Z" fill="#28B446"/>
<path d="M30.1152 12.5141L26.0658 15.8293C24.9264 15.1171 23.5795 14.7057 22.1365 14.7057C18.8783 14.7057 16.1097 16.8032 15.107 19.7215L11.0349 16.3877H11.0342C13.1146 12.3767 17.3055 9.63635 22.1365 9.63635C25.1695 9.63635 27.9504 10.7167 30.1152 12.5141Z" fill="#F14336"/>
</g>
<defs>
<clipPath id="clip0_747_5071">
<rect x="0.5" y="0.5" width="41" height="41" rx="20.5" fill="white"/>
</clipPath>
</defs>
</svg>
