<svg width="42" height="42" viewBox="0 0 42 42" fill="none" xmlns="http://www.w3.org/2000/svg">
<g clip-path="url(#clip0_747_5561)">
<path d="M23.1429 8.5C16.0429 8.5 10.2857 14.0972 10.2857 21H6L11.5571 26.4028L11.6571 26.5972L17.4286 21H13.1429C13.1429 15.625 17.6143 11.2778 23.1429 11.2778C28.6714 11.2778 33.1429 15.625 33.1429 21C33.1429 26.375 28.6714 30.7222 23.1429 30.7222C20.3857 30.7222 17.8857 29.625 16.0857 27.8611L14.0571 29.8333C16.3857 32.0972 19.5857 33.5 23.1429 33.5C30.2429 33.5 36 27.9028 36 21C36 14.0972 30.2429 8.5 23.1429 8.5ZM21.7143 15.4444V22.3889L27.8286 25.9167L28.8571 24.2361L23.8571 21.3472V15.4444H21.7143Z" fill="#00120A"/>
</g>
<defs>
<clipPath id="clip0_747_5561">
<rect x="0.5" y="0.5" width="41" height="41" rx="20.5" fill="white"/>
</clipPath>
</defs>
</svg>
