<svg width="42" height="42" viewBox="0 0 42 42" fill="none" xmlns="http://www.w3.org/2000/svg">
<path fill-rule="evenodd" clip-rule="evenodd" d="M19.9393 7.43934C20.5251 6.85355 21.4749 6.85355 22.0607 7.43934L31.7824 17.1611L31.7833 17.162L34.5607 19.9393C35.1464 20.5251 35.1464 21.4749 34.5607 22.0607C33.9749 22.6464 33.0251 22.6464 32.4393 22.0607L32.2222 21.8435V30.7222C32.2222 33.0848 30.307 35 27.9444 35H14.0556C11.693 35 9.7778 33.0848 9.7778 30.7222V21.8435L9.56066 22.0607C8.97487 22.6464 8.02513 22.6464 7.43934 22.0607C6.85355 21.4749 6.85355 20.5251 7.43934 19.9393L19.9393 7.43934ZM12.7778 18.8435V30.7222C12.7778 31.428 13.3498 32 14.0556 32H27.9444C28.6502 32 29.2222 31.428 29.2222 30.7222V18.8435L21 10.6213L12.7778 18.8435Z" fill="currentColor"/>
</svg>
