<svg width="42" height="42" viewBox="0 0 42 42" fill="none" xmlns="http://www.w3.org/2000/svg">
<g clip-path="url(#clip0_907_570)">
<path d="M30.7222 8.5H11.2778C9.73611 8.5 8.5 9.57143 8.5 10.881V27.5476C8.5 28.8571 9.73611 29.9286 11.2778 29.9286H16.8333L21 33.5L25.1667 29.9286H30.7222C32.25 29.9286 33.5 28.8571 33.5 27.5476V10.881C33.5 9.57143 32.25 8.5 30.7222 8.5ZM22.3889 27.5476H19.6111V25.1667H22.3889V27.5476ZM25.2639 18.3214L24.0139 19.4167C23.0139 20.2857 22.3889 21 22.3889 22.7857H19.6111V22.1905C19.6111 20.881 20.2361 19.6905 21.2361 18.8214L22.9583 17.3214C23.4722 16.8929 23.7778 16.2976 23.7778 15.6429C23.7778 14.3333 22.5278 13.2619 21 13.2619C19.4722 13.2619 18.2222 14.3333 18.2222 15.6429H15.4444C15.4444 13.0119 17.9306 10.881 21 10.881C24.0694 10.881 26.5556 13.0119 26.5556 15.6429C26.5556 16.6905 26.0556 17.6429 25.2639 18.3214Z" fill="black"/>
</g>
<defs>
<clipPath id="clip0_907_570">
<rect x="0.5" y="0.5" width="41" height="41" rx="20.5" fill="white"/>
</clipPath>
</defs>
</svg>
