<svg width="42" height="42" viewBox="0 0 42 42" fill="none" xmlns="http://www.w3.org/2000/svg">
<g clip-path="url(#clip0_902_3235)">
<path d="M21 6C14.0893 6 8.5 10.695 8.5 16.5C8.5 19.11 9.39286 21.555 11.0179 23.76C12.7143 26.07 14.9464 28.05 16.6607 30.36C17.5 31.485 18.1071 32.535 18.75 33.75C19.2143 34.575 19.5893 36 21 36C22.4107 36 22.7857 34.575 23.2321 33.75C23.8929 32.535 24.4821 31.485 25.3214 30.36C27.0357 28.065 29.2679 26.085 30.9643 23.76C32.6071 21.555 33.5 19.11 33.5 16.5C33.5 10.695 27.9107 6 21 6ZM21 20.625C18.5357 20.625 16.5357 18.945 16.5357 16.875C16.5357 14.805 18.5357 13.125 21 13.125C23.4643 13.125 25.4643 14.805 25.4643 16.875C25.4643 18.945 23.4643 20.625 21 20.625Z" fill="black"/>
</g>
<defs>
<clipPath id="clip0_902_3235">
<rect x="0.5" y="0.5" width="41" height="41" rx="20.5" fill="white"/>
</clipPath>
</defs>
</svg>
