<svg width="42" height="42" viewBox="0 0 42 42" fill="none" xmlns="http://www.w3.org/2000/svg">
<g clip-path="url(#clip0_766_3978)">
<path fill-rule="evenodd" clip-rule="evenodd" d="M17.2401 8.83283C17.5006 8.61973 17.8539 8.5 18.2222 8.5H29.3333C31.6346 8.5 33.5 10.0263 33.5 11.9091V30.0909C33.5 31.9737 31.6346 33.5 29.3333 33.5H12.6667C10.3655 33.5 8.5 31.9737 8.5 30.0909V16.4545C8.5 16.1532 8.64633 15.8641 8.90679 15.651L17.2401 8.83283ZM29.3333 10.7727H19.6111V16.4545C19.6111 17.0821 18.9893 17.5909 18.2222 17.5909H11.2778V30.0909C11.2778 30.7185 11.8996 31.2273 12.6667 31.2273H29.3333C30.1004 31.2273 30.7222 30.7185 30.7222 30.0909V11.9091C30.7222 11.2815 30.1004 10.7727 29.3333 10.7727ZM13.242 15.3182H16.8333V12.3798L13.242 15.3182ZM14.0556 22.1364C14.0556 21.5088 14.6774 21 15.4444 21H26.5556C27.3226 21 27.9444 21.5088 27.9444 22.1364C27.9444 22.764 27.3226 23.2727 26.5556 23.2727H15.4444C14.6774 23.2727 14.0556 22.764 14.0556 22.1364ZM14.0556 26.6818C14.0556 26.0542 14.6774 25.5455 15.4444 25.5455H26.5556C27.3226 25.5455 27.9444 26.0542 27.9444 26.6818C27.9444 27.3094 27.3226 27.8182 26.5556 27.8182H15.4444C14.6774 27.8182 14.0556 27.3094 14.0556 26.6818Z" fill="currentColor"/>
</g>
<defs>
<clipPath id="clip0_766_3978">
<rect x="0.5" y="0.5" width="41" height="41" rx="20.5" fill="white"/>
</clipPath>
</defs>
</svg>
