<svg width="42" height="42" viewBox="0 0 42 42" fill="none" xmlns="http://www.w3.org/2000/svg">
<g clip-path="url(#clip0_747_5530)">
<path d="M14.5937 26.3125C15.4791 25.6355 16.4687 25.1016 17.5624 24.711C18.6562 24.3204 19.802 24.125 20.9999 24.125C22.1978 24.125 23.3437 24.3204 24.4374 24.711C25.5312 25.1016 26.5208 25.6355 27.4062 26.3125C28.0138 25.6007 28.4869 24.7934 28.8254 23.8907C29.164 22.9879 29.3333 22.0243 29.3333 21C29.3333 18.691 28.5216 16.7249 26.8984 15.1016C25.2751 13.4783 23.3089 12.6667 20.9999 12.6667C18.6909 12.6667 16.7247 13.4783 15.1015 15.1016C13.4782 16.7249 12.6666 18.691 12.6666 21C12.6666 22.0243 12.8359 22.9879 13.1744 23.8907C13.5129 24.7934 13.986 25.6007 14.5937 26.3125ZM20.9999 22.0417C19.9756 22.0417 19.1119 21.6901 18.4088 20.987C17.7056 20.2839 17.3541 19.4202 17.3541 18.3959C17.3541 17.3716 17.7056 16.5079 18.4088 15.8047C19.1119 15.1016 19.9756 14.75 20.9999 14.75C22.0242 14.75 22.8879 15.1016 23.5911 15.8047C24.2942 16.5079 24.6458 17.3716 24.6458 18.3959C24.6458 19.4202 24.2942 20.2839 23.5911 20.987C22.8879 21.6901 22.0242 22.0417 20.9999 22.0417ZM20.9999 31.4167C19.5589 31.4167 18.2048 31.1433 16.9374 30.5964C15.6701 30.0495 14.5676 29.3073 13.6301 28.3698C12.6926 27.4323 11.9504 26.3299 11.4036 25.0625C10.8567 23.7952 10.5833 22.441 10.5833 21C10.5833 19.5591 10.8567 18.2049 11.4036 16.9375C11.9504 15.6702 12.6926 14.5677 13.6301 13.6302C14.5676 12.6927 15.6701 11.9506 16.9374 11.4037C18.2048 10.8568 19.5589 10.5834 20.9999 10.5834C22.4409 10.5834 23.7951 10.8568 25.0624 11.4037C26.3298 11.9506 27.4322 12.6927 28.3697 13.6302C29.3072 14.5677 30.0494 15.6702 30.5963 16.9375C31.1431 18.2049 31.4166 19.5591 31.4166 21C31.4166 22.441 31.1431 23.7952 30.5963 25.0625C30.0494 26.3299 29.3072 27.4323 28.3697 28.3698C27.4322 29.3073 26.3298 30.0495 25.0624 30.5964C23.7951 31.1433 22.4409 31.4167 20.9999 31.4167Z" fill="#00120A"/>
</g>
<defs>
<clipPath id="clip0_747_5530">
<rect x="0.5" y="0.5" width="41" height="41" rx="20.5" fill="white"/>
</clipPath>
</defs>
</svg>
