<svg width="42" height="42" viewBox="0 0 42 42" fill="none" xmlns="http://www.w3.org/2000/svg">
<g clip-path="url(#clip0_1167_6355)">
<path d="M21 33.5C17.8056 33.5 15.022 32.441 12.6493 30.3229C10.2766 28.2049 8.91667 25.5602 8.56944 22.3889H11.4167C11.7407 24.7963 12.8113 26.787 14.6285 28.3611C16.4456 29.9352 18.5694 30.7222 21 30.7222C23.7083 30.7222 26.0058 29.7789 27.8924 27.8924C29.7789 26.0058 30.7222 23.7083 30.7222 21C30.7222 18.2917 29.7789 15.9942 27.8924 14.1076C26.0058 12.2211 23.7083 11.2778 21 11.2778C19.4028 11.2778 17.9097 11.6481 16.5208 12.3889C15.1319 13.1296 13.963 14.1481 13.0139 15.4444H16.8333V18.2222H8.5V9.88889H11.2778V13.1528C12.4583 11.6713 13.8993 10.5255 15.6007 9.71528C17.3021 8.90509 19.1019 8.5 21 8.5C22.7361 8.5 24.3623 8.82986 25.8785 9.48958C27.3947 10.1493 28.7141 11.0405 29.8368 12.1632C30.9595 13.2859 31.8507 14.6053 32.5104 16.1215C33.1701 17.6377 33.5 19.2639 33.5 21C33.5 22.7361 33.1701 24.3623 32.5104 25.8785C31.8507 27.3947 30.9595 28.7141 29.8368 29.8368C28.7141 30.9595 27.3947 31.8507 25.8785 32.5104C24.3623 33.1701 22.7361 33.5 21 33.5ZM24.8889 26.8333L19.6111 21.5556V14.0556H22.3889V20.4444L26.8333 24.8889L24.8889 26.8333Z" fill="#00120A"/>
</g>
<defs>
<clipPath id="clip0_1167_6355">
<rect x="0.5" y="0.5" width="41" height="41" rx="20.5" fill="white"/>
</clipPath>
</defs>
</svg>
