<svg width="33" height="42" viewBox="0 0 33 42" fill="none" xmlns="http://www.w3.org/2000/svg">
<g clip-path="url(#clip0_747_4618)">
<path d="M19.9167 30.375L13.3542 23.8125C12.8333 24.2292 12.2344 24.559 11.5573 24.8021C10.8802 25.0451 10.1597 25.1667 9.39583 25.1667C7.50347 25.1667 5.90191 24.5113 4.59115 23.2005C3.28038 21.8898 2.625 20.2882 2.625 18.3958C2.625 16.5035 3.28038 14.9019 4.59115 13.5911C5.90191 12.2804 7.50347 11.625 9.39583 11.625C11.2882 11.625 12.8898 12.2804 14.2005 13.5911C15.5113 14.9019 16.1667 16.5035 16.1667 18.3958C16.1667 19.1597 16.0451 19.8802 15.8021 20.5573C15.559 21.2344 15.2292 21.8333 14.8125 22.3542L21.375 28.9167L19.9167 30.375ZM9.39583 23.0833C10.6979 23.0833 11.8047 22.6276 12.7161 21.7161C13.6276 20.8047 14.0833 19.6979 14.0833 18.3958C14.0833 17.0938 13.6276 15.987 12.7161 15.0755C11.8047 14.1641 10.6979 13.7083 9.39583 13.7083C8.09375 13.7083 6.98698 14.1641 6.07552 15.0755C5.16406 15.987 4.70833 17.0938 4.70833 18.3958C4.70833 19.6979 5.16406 20.8047 6.07552 21.7161C6.98698 22.6276 8.09375 23.0833 9.39583 23.0833Z" fill="currentColor"/>
</g>
<defs>
<clipPath id="clip0_747_4618">
<rect x="-8.5" y="0.5" width="41" height="41" rx="20.5" fill="white"/>
</clipPath>
</defs>
</svg>
