<svg width="42" height="42" viewBox="0 0 42 42" fill="none" xmlns="http://www.w3.org/2000/svg">
<g clip-path="url(#clip0_747_5590)">
<path d="M16 28.5C14.625 28.5 13.5125 29.625 13.5125 31C13.5125 32.375 14.625 33.5 16 33.5C17.375 33.5 18.5 32.375 18.5 31C18.5 29.625 17.375 28.5 16 28.5ZM8.5 8.5V11H11L15.5 20.4875L13.8125 23.55C13.6125 23.9 13.5 24.3125 13.5 24.75C13.5 26.125 14.625 27.25 16 27.25H31V24.75H16.525C16.35 24.75 16.2125 24.6125 16.2125 24.4375L16.25 24.2875L17.375 22.25H26.6875C27.625 22.25 28.45 21.7375 28.875 20.9625L33.35 12.85C33.45 12.675 33.5 12.4625 33.5 12.25C33.5 11.5625 32.9375 11 32.25 11H13.7625L12.5875 8.5H8.5ZM28.5 28.5C27.125 28.5 26.0125 29.625 26.0125 31C26.0125 32.375 27.125 33.5 28.5 33.5C29.875 33.5 31 32.375 31 31C31 29.625 29.875 28.5 28.5 28.5Z" fill="currentColor"/>
</g>
<defs>
<clipPath id="clip0_747_5590">
<rect x="0.5" y="0.5" width="41" height="41" rx="20.5" fill="white"/>
</clipPath>
</defs>
</svg>
