<svg width="42" height="42" viewBox="0 0 42 42" fill="none" xmlns="http://www.w3.org/2000/svg">
<g clip-path="url(#clip0_767_4777)">
<mask id="path-2-inside-1_767_4777" fill="white">
<path d="M21.0001 8.5L25.2491 16.1705L33.5001 18.0492L27.8751 24.6684L28.7255 33.5L21.0001 29.9205L13.2746 33.5L14.1251 24.6684L8.50007 18.0492L16.7511 16.1705L21.0001 8.5Z"/>
</mask>
<path d="M21.0001 8.5L21.8748 8.01544L21.0001 6.43628L20.1253 8.01544L21.0001 8.5ZM25.2491 16.1705L24.3743 16.655L24.591 17.0462L25.027 17.1455L25.2491 16.1705ZM33.5001 18.0492L34.2621 18.6967L35.3299 17.4402L33.7221 17.0741L33.5001 18.0492ZM27.8751 24.6684L27.113 24.0209L26.8391 24.3432L26.8797 24.7643L27.8751 24.6684ZM28.7255 33.5L28.3051 34.4073L29.8881 35.1408L29.7209 33.4041L28.7255 33.5ZM21.0001 29.9205L21.4205 29.0131L21.0001 28.8183L20.5797 29.0131L21.0001 29.9205ZM13.2746 33.5L12.2792 33.4041L12.112 35.1408L13.6951 34.4073L13.2746 33.5ZM14.1251 24.6684L15.1205 24.7643L15.161 24.3432L14.8871 24.0209L14.1251 24.6684ZM8.50007 18.0492L8.27806 17.0741L6.67027 17.4402L7.73805 18.6967L8.50007 18.0492ZM16.7511 16.1705L16.9731 17.1455L17.4091 17.0462L17.6258 16.655L16.7511 16.1705ZM20.1253 8.98456L24.3743 16.655L26.1238 15.6859L21.8748 8.01544L20.1253 8.98456ZM25.027 17.1455L33.2781 19.0242L33.7221 17.0741L25.4711 15.1954L25.027 17.1455ZM32.738 17.4016L27.113 24.0209L28.6371 25.316L34.2621 18.6967L32.738 17.4016ZM26.8797 24.7643L27.7301 33.5959L29.7209 33.4041L28.8705 24.5726L26.8797 24.7643ZM29.1459 32.5927L21.4205 29.0131L20.5797 30.8278L28.3051 34.4073L29.1459 32.5927ZM20.5797 29.0131L12.8542 32.5927L13.6951 34.4073L21.4205 30.8278L20.5797 29.0131ZM14.27 33.5959L15.1205 24.7643L13.1297 24.5726L12.2792 33.4041L14.27 33.5959ZM14.8871 24.0209L9.26209 17.4016L7.73805 18.6967L13.3631 25.316L14.8871 24.0209ZM8.72208 19.0242L16.9731 17.1455L16.5291 15.1954L8.27806 17.0741L8.72208 19.0242ZM17.6258 16.655L21.8748 8.98456L20.1253 8.01544L15.8763 15.6859L17.6258 16.655Z" fill="#6B7A8C" mask="url(#path-2-inside-1_767_4777)"/>
</g>
<defs>
<clipPath id="clip0_767_4777">
<rect x="0.5" y="0.5" width="41" height="41" rx="20.5" fill="white"/>
</clipPath>
</defs>
</svg>
