<svg width="42" height="42" viewBox="0 0 42 42" fill="none" xmlns="http://www.w3.org/2000/svg">
<g clip-path="url(#clip0_747_5556)">
<path d="M15.7917 30.375C15.2188 30.375 14.7284 30.171 14.3204 29.763C13.9124 29.355 13.7084 28.8646 13.7084 28.2917V14.75H12.6667V12.6667H17.8751V11.625H24.1251V12.6667H29.3334V14.75H28.2917V28.2917C28.2917 28.8646 28.0878 29.355 27.6798 29.763C27.2718 30.171 26.7813 30.375 26.2084 30.375H15.7917ZM26.2084 14.75H15.7917V28.2917H26.2084V14.75ZM17.8751 26.2083H19.9584V16.8333H17.8751V26.2083ZM22.0417 26.2083H24.1251V16.8333H22.0417V26.2083Z" fill="#00120A"/>
</g>
<defs>
<clipPath id="clip0_747_5556">
<rect x="0.5" y="0.5" width="41" height="41" rx="20.5" fill="white"/>
</clipPath>
</defs>
</svg>
